<svg width="959" height="907" viewBox="0 0 959 907" fill="none" xmlns="http://www.w3.org/2000/svg">
<g clip-path="url(#clip0_289_5456)">
<path d="M407.266 708.669C396.152 651.298 437.365 520.26 459.36 461.912C466.692 465.382 528.048 453.43 547.728 424.899C563.473 402.074 590.212 393.109 603.296 389.042C620.661 383.644 649.603 384.415 655.005 397.524L660.792 411.019C679.702 465.382 663.237 548.02 651.532 584.905L608.313 592.616C575.589 539.564 592.363 474.893 604.84 449.189C591.565 467.079 554.289 485.945 537.31 493.142C536.538 540.566 463.991 704.042 448.17 714.452C435.513 722.78 415.627 714.067 407.266 708.669Z" fill="black"/>
<path d="M434.984 718.118L429.581 727.938M412.598 711.896L402.289 739.118L401.405 741.451C400.424 743.808 399.744 747.762 401.405 751.13C402.576 753.505 404.911 755.588 409.125 756.618C419.314 759.106 457.628 761.804 475.511 762.841C478.599 763.23 484.466 761.751 483.23 752.729C481.995 743.706 475.511 735.45 468.178 732.118C462.229 729.415 446.89 725.22 429.581 727.938L412.598 711.896ZM424.177 729.006C425.994 728.571 427.798 728.218 429.581 727.938L424.177 729.006Z" stroke="black" stroke-width="5" stroke-linecap="round"/>
<path d="M614.476 590.523C614.09 601.963 615.132 624.486 617.958 627.93C621.44 632.172 625.696 632.557 651.616 624.459C672.353 617.98 680.632 617.904 685.661 617.133C689.143 616.599 693.399 616.13 693.399 607.492C693.399 596.694 689.143 589.366 675.989 587.823C665.466 586.589 650.456 592.965 644.266 596.307V585.896" stroke="black" stroke-width="5" stroke-linecap="round"/>
<path d="M564.957 202.363C525.216 206.379 447.124 223.306 452.68 258.884C453.532 261.905 455.979 266.725 460.541 271.259C464.935 275.626 471.291 279.728 480.074 281.701" stroke="black" stroke-width="5" stroke-linecap="round"/>
<path d="M460.541 271.259C472.968 290.595 509.397 332.593 555.697 345.896" stroke="black" stroke-width="5" stroke-linecap="round"/>
<path d="M555.398 345.896C558.228 342.094 565.666 335.222 574.398 334.896" stroke="black" stroke-width="5" stroke-linecap="round"/>
<path d="M574.398 334.896C574.14 324.038 564.98 296.036 530.398 270.896" stroke="black" stroke-width="5" stroke-linecap="round"/>
<path d="M520.398 279.896C523.987 274.085 535.013 261.749 550.398 258.896" stroke="black" stroke-width="5" stroke-linecap="round"/>
<path d="M606.398 268.896C608.064 270.866 611.398 276.224 611.398 281.896" stroke="black" stroke-width="5" stroke-linecap="round"/>
<path d="M606.006 351.907C613.887 351.522 630.345 350.366 633.136 348.824C636.624 346.898 637.399 346.898 637.399 343.044C637.399 339.191 606.006 345.742 606.006 333.411C608.849 330.585 613.448 324.239 609.107 321.464C604.766 318.69 595.671 326.732 591.667 331.099C587.533 335.466 578.257 342.351 574.226 334.952" stroke="black" stroke-width="5" stroke-linecap="round"/>
<path d="M556.398 345.742C559.886 355.889 572.443 374.102 594.766 365.779C617.09 357.456 618.02 353.063 615.694 351.907" stroke="black" stroke-width="5" stroke-linecap="round"/>
<path d="M748.659 350.06C754.084 348.577 765.941 341.68 769.971 325.95C774.001 310.221 768.55 310.144 765.321 312.071" stroke="black" stroke-width="5" stroke-linecap="round"/>
<path d="M728.509 338.673C730.188 329.934 736.104 313.074 746.334 315.541" stroke="black" stroke-width="5" stroke-linecap="round"/>
<path d="M732.771 324.408C725.641 318.548 721.275 331.99 719.983 339.444C711.924 341.911 708.875 353.58 708.359 359.106C727.01 361.019 740.264 356.01 748.658 350.06C753.797 346.417 757.114 342.421 758.733 339.444C762.737 328.778 768.575 306.52 759.895 302.819C751.215 299.118 748.787 307.445 748.658 312.071C749.588 322.558 744.137 334.175 741.296 338.673" stroke="black" stroke-width="5" stroke-linecap="round"/>
<path d="M620.398 351.781C637.189 367.459 678.289 390.873 708.359 359.106" stroke="black" stroke-width="5" stroke-linecap="round"/>
<path d="M617.398 353.896C617.398 361.175 615.598 377.765 608.398 385.896" stroke="black" stroke-width="5" stroke-linecap="round"/>
<path d="M460.399 370.896C444.552 392.286 422.366 440.631 460.399 462.896" stroke="black" stroke-width="5" stroke-linecap="round"/>
<path d="M934.398 278.896L943.398 263.896" stroke="black" stroke-width="5" stroke-linecap="round"/>
<path d="M938.798 286.737L955.399 285.965" stroke="black" stroke-width="5" stroke-linecap="round"/>
<path d="M935.398 295.896L945.398 308.896" stroke="black" stroke-width="5" stroke-linecap="round"/>
<path d="M608.517 766.903H338.398V898.896" stroke="black" stroke-width="15" stroke-linecap="round"/>
<path d="M796.326 635.297H575.284V796.235" stroke="black" stroke-width="15" stroke-linecap="round"/>
<path d="M942.399 450.814H763.092V665.785" stroke="black" stroke-width="15" stroke-linecap="round"/>
<path d="M910.711 310.396V480.918" stroke="black" stroke-width="15" stroke-linecap="round"/>
<path d="M910.711 250.896V265.396" stroke="black" stroke-width="15" stroke-linecap="round"/>
<path d="M560.439 355.432L339.066 380.896C313.458 360.381 319.655 329.754 325.954 317.005L479.835 298.56" stroke="black" stroke-width="5" stroke-linecap="round"/>
<path d="M636.415 349.284L712.392 341.983" stroke="black" stroke-width="5" stroke-linecap="round"/>
<path d="M767.927 333.913L817.678 330.453L884.399 300.211C876.377 291.695 880.777 284.11 884.119 281.396L817.678 265.896L554.654 287.799" stroke="black" stroke-width="5" stroke-linecap="round"/>
<path d="M302.116 317.322L324.667 314.896C309.027 349.934 326.955 373.771 338.399 383.046L312.079 386.896C290.08 360.104 295.751 330.12 302.116 317.322Z" fill="black"/>
<path d="M886.799 301.896C878.429 293.16 883.132 282.756 886.619 279.396L918.399 287.238L886.799 301.896Z" fill="black"/>
<path d="M818.398 265.896C810.097 276.434 798.476 303.988 818.398 329.896" stroke="black" stroke-width="5"/>
<path d="M627.215 209.11C633.829 205.039 683.588 208.963 693.262 146.372C709.824 146.566 718.83 132.999 706.193 127.193C692.721 120.246 693.732 107.492 696.173 99.977C700.053 90.1217 700.288 79.7746 699.451 77.6104" stroke="black" stroke-width="5" stroke-linecap="round"/>
<path d="M678.661 123.77C680.541 123.792 682.091 121.525 682.124 118.706C682.157 115.887 680.66 113.583 678.781 113.561C676.901 113.539 675.351 115.807 675.318 118.626C675.285 121.445 676.782 123.748 678.661 123.77Z" fill="black"/>
<path d="M669.423 103.111C672.186 100.157 679.332 95.836 685.806 102.183" stroke="black" stroke-width="5" stroke-linecap="round"/>
<path d="M650.652 160.626C655.731 168.441 661.306 170.66 672.137 165.617" stroke="black" stroke-width="5" stroke-linecap="round"/>
<path d="M609.077 105.85C607.9 108.434 606.915 114.3 612.384 117.092" stroke="black" stroke-width="5" stroke-linecap="round"/>
<path d="M550.783 79.3151C544.339 114.57 564.501 141.109 579.118 161.511C594.729 153.077 620.315 133.021 610.502 130.856C600.188 128.581 589.31 100.448 599.326 91.8419C611.077 81.7449 621.67 97.0222 623.689 108.606L633.154 92.2382C630.477 80.7897 629.428 60.7073 646.641 71.9656C663.854 83.2238 689.103 80.2747 699.576 77.3929C720.226 62.6123 752.308 28.1358 715.44 8.47498C684.775 -7.87745 644.872 12.7964 620.514 31.373C604.022 27.0191 559.569 31.2458 550.783 79.3151Z" fill="black"/>
<path d="M580.265 159.15C587.719 168.124 591.422 175.576 590.961 191.013" stroke="black" stroke-width="5" stroke-linecap="round"/>
<path d="M571.97 211.68C569.36 202.576 567.831 185.212 582.592 188.587C601.043 192.805 638.651 211.051 635.896 221.165" stroke="black" stroke-width="5" stroke-linecap="round"/>
<path d="M635.898 235.396C649.398 247.896 652.398 255.896 654.398 270.896" stroke="black" stroke-width="5" stroke-linecap="round"/>
<path d="M3.39844 640.849C21.7371 639.179 64.9496 650.114 93.8157 706.355C94.5707 707.826 96.6997 707.865 97.4518 706.393C127.061 648.429 163.401 589.63 278.265 660.426C280.031 661.514 282.348 659.543 281.473 657.662C262.837 617.581 252.766 541.144 339.607 503.223C341.349 502.463 341.272 499.874 339.448 499.34L316.985 492.775C314.926 492.173 315.15 489.348 317.287 489.155C340.427 487.07 373.072 488.429 361.833 502.082C348.711 518.022 345.484 528.101 348.683 544.743" stroke="black" stroke-width="5" stroke-linecap="round"/>
</g>
<defs>
<clipPath id="clip0_289_5456">
<rect width="958" height="906" fill="white" transform="translate(0.585938 0.617676)"/>
</clipPath>
</defs>
</svg>
