<svg width="518" height="547" viewBox="0 0 518 547" fill="none" xmlns="http://www.w3.org/2000/svg">
<path d="M335.428 446.155C337.236 433.699 351.314 414.515 393.168 437.435" stroke="black" stroke-width="5" stroke-linecap="round"/>
<path d="M365.407 363.244C367.043 352.61 368.222 330.494 359.856 327.106C351.49 323.717 348.27 333.893 347.706 339.405L341.091 378.038" stroke="black" stroke-width="5" stroke-linecap="round"/>
<path d="M381.219 373.424C383.561 364.221 386.933 338.124 377.483 332.803C375.711 331.873 371 330.61 366.335 332.996" stroke="black" stroke-width="5" stroke-linecap="round"/>
<path d="M394.831 365.789C396.925 357.688 400.369 344.788 391.319 344.092L384.222 344.092" stroke="black" stroke-width="5" stroke-linecap="round"/>
<path d="M397.562 352.135C404.168 350.739 405.971 360.854 405.971 365.789C406.932 375.059 405.971 401.983 393.168 437.434C390.887 445.818 387.379 465.672 391.588 478.021" stroke="black" stroke-width="5" stroke-linecap="round"/>
<path d="M320.377 395.933C321.083 401.309 325.089 421.649 332.088 430.422C339.087 439.195 335.477 440.066 335.429 446.154L332.088 505.584" stroke="black" stroke-width="5" stroke-linecap="round"/>
<path d="M341.5 379.54L251.945 440.632C250.524 441.601 248.581 441.18 247.689 439.709C241.819 430.023 234.995 418.772 227.566 406.534C186.468 338.837 126.853 240.957 107.864 210.981C85.4248 175.559 175.689 76.4871 225.537 29.4909C226.693 28.4007 228.465 28.4422 229.616 29.5384L263.02 61.3521" stroke="black" stroke-width="5" stroke-linecap="round"/>
<path d="M227.566 406.534L188.989 452.094C187.724 453.588 185.428 453.542 184.291 451.949C136.294 384.749 38.4416 254.103 4.87481 232.524C3.43775 231.6 2.90889 229.729 3.75446 228.245L107.23 46.5819C107.635 45.8713 108.309 45.3508 109.11 45.1845C121.985 42.5109 152.037 44.1241 179.123 70.717" stroke="black" stroke-width="5" stroke-linecap="round"/>
<path d="M341.5 379.04L308.103 380.905C306.608 380.989 305.289 379.998 304.995 378.529C295.346 330.312 269.876 228.705 240.905 188.188C215.601 152.8 201.068 135.712 195.088 129.656C193.888 128.441 193.751 126.464 194.894 125.196C210.024 108.407 234.634 84.0692 263.02 61.3524C295.407 35.4334 332.71 11.6252 366.456 3.55051C367.77 3.23619 369.116 3.8685 369.745 5.06388L396.763 56.4164" stroke="black" stroke-width="5" stroke-linecap="round"/>
<path d="M408.347 366.324C415.264 360.547 440.62 351.279 487.673 358.881C489.821 359.228 491.66 357.302 491.176 355.181C482.774 318.364 472.586 236.421 492.244 168.902C511.634 102.302 515.594 40.7007 515.174 14.2455C515.141 12.1828 513.056 10.8393 511.135 11.5921L396.763 56.4169L324.618 84.6919C323.46 85.1457 322.701 86.2176 322.715 87.4613C323.303 143.225 329.104 268.597 347.97 340.375" stroke="black" stroke-width="5" stroke-linecap="round"/>
<path d="M389.076 292.04C410.355 284.748 453.403 268.964 455.367 264.165" stroke="black" stroke-width="5" stroke-linecap="round"/>
<path d="M389.076 249.699C388.725 246.405 402.755 238.478 436.427 228.881" stroke="black" stroke-width="5" stroke-linecap="round"/>
<path d="M383.464 210.18C410.004 201.83 464.908 183.223 472.203 175.602" stroke="black" stroke-width="5" stroke-linecap="round"/>
<path d="M378.203 168.545L430.114 146.669" stroke="black" stroke-width="5" stroke-linecap="round"/>
<path d="M378.203 123.734C391.765 115.148 429.552 94.5892 472.203 81.04" stroke="black" stroke-width="5" stroke-linecap="round"/>
<path d="M301.218 165.408L324.394 155.567" stroke="black" stroke-width="5" stroke-linecap="round"/>
<path d="M281.203 135.182L322.638 113.04" stroke="black" stroke-width="5" stroke-linecap="round"/>
<path d="M313.859 197.04L327.203 191.065" stroke="black" stroke-width="5" stroke-linecap="round"/>
<path d="M257.762 319.04L272.203 302.668" stroke="black" stroke-width="5" stroke-linecap="round"/>
<path d="M236.98 289.431C242.029 280.839 254.028 262.539 270.09 255.294" stroke="black" stroke-width="5" stroke-linecap="round"/>
<path d="M209.859 245.54L243.673 207.919" stroke="black" stroke-width="5" stroke-linecap="round"/>
<path d="M185.203 214.538L225.709 172.04" stroke="black" stroke-width="5" stroke-linecap="round"/>
<path d="M98.2031 251.34L119.127 231.04" stroke="black" stroke-width="5" stroke-linecap="round"/>
<path d="M119.127 270.24L135.169 256.24" stroke="black" stroke-width="5" stroke-linecap="round"/>
<path d="M135.169 296.49L151.909 283.54" stroke="black" stroke-width="5" stroke-linecap="round"/>
<path d="M156.442 321.69L169.346 311.54" stroke="black" stroke-width="5" stroke-linecap="round"/>
<path d="M171.438 343.04L181.203 334.64" stroke="black" stroke-width="5" stroke-linecap="round"/>
</svg>
