<svg width="285" height="365" viewBox="0 0 285 365" fill="none" xmlns="http://www.w3.org/2000/svg">
<path d="M160.27 256.155C173.77 255.821 204.919 251.472 217.349 247.328C224.849 244.827 231.149 247.628 230.349 256.828C229.549 266.028 200.849 282.502 177.349 286.328C163.016 288.661 129.149 291.928 108.349 286.328C87.5491 280.728 63.6825 303.328 54.3491 315.328C48.3491 322.828 33.9491 342.728 24.3491 362.328" stroke="black" stroke-width="5" stroke-linecap="round"/>
<path d="M162.349 249.329C177.182 247.162 210.91 240.035 219.849 235.829C228.349 231.829 233.849 235.829 235.349 241.829C235.682 243.495 235.349 247.429 231.349 249.829" stroke="black" stroke-width="5" stroke-linecap="round"/>
<path d="M148.349 235.829C160.349 230.495 186.349 222.029 194.349 230.829" stroke="black" stroke-width="5" stroke-linecap="round"/>
<path d="M157.849 241.829C159.349 240.829 179.849 236.829 199.349 229.329C203.516 227.995 212.349 227.429 214.349 235.829" stroke="black" stroke-width="5" stroke-linecap="round"/>
<path d="M103.849 256.828C125.016 261.662 166.049 267.028 160.849 249.828C155.766 233.014 131.474 231.713 119.176 233.22C118.642 233.286 118.101 233.134 117.67 232.812C84.1268 207.745 38.2282 238.466 20.3491 258.828C13.6825 266.828 10.3491 271.328 3.34912 282.328" stroke="black" stroke-width="5" stroke-linecap="round"/>
<path d="M99.8494 88.4132V88.4132C99.205 88.4103 98.9226 89.2149 99.4429 89.5952C112.752 99.3229 141.805 115.493 165.554 111.456C165.747 111.423 165.946 111.446 166.126 111.524L188.164 121.084" stroke="black" stroke-width="5" stroke-linecap="round"/>
<path d="M79.3493 52.4043C76.6826 53.2376 71.4493 57.0043 71.8493 65.4043C72.4885 76.0602 80.583 82.7977 84.5503 85.5845C89.5503 88.5845 93.6103 88.3352 97.8491 88.4043V88.4043C98.0026 88.4068 101.819 88.0497 101.965 88.0028C104.707 87.1211 107.788 84.7109 106.849 79.3991" stroke="black" stroke-width="5" stroke-linecap="round"/>
<path d="M88.3492 36.9043C84.5158 38.2376 77.3491 43.2043 79.3491 52.4043C81.3491 61.6043 82.8834 64.2511 83.5501 65.5845C85.9132 70.7046 89.7629 73.6594 91.4717 74.5445C91.5249 74.5721 91.5724 74.6014 91.6208 74.6368C93.9527 76.3424 99.9566 78.6891 106.849 79.3991C108.738 79.5937 114.962 79.762 116.349 79.9043C121.849 79.9043 125.349 77.7843 123.349 69.171" stroke="black" stroke-width="5" stroke-linecap="round"/>
<path d="M97.5439 19.4043C93.8492 19.4043 85.8492 23.4043 88.3492 36.9043C90.3492 47.7043 92.5502 52.5845 95.5502 56.0845C98.5502 59.5845 102.55 63.5845 108.55 65.4043L123.26 69.1484C123.319 69.1634 123.38 69.173 123.441 69.1771L126.627 69.3895C126.773 69.3992 126.919 69.3782 127.054 69.3216C130.073 68.0557 134.869 64.0521 131.349 57.4043" stroke="black" stroke-width="5" stroke-linecap="round"/>
<path d="M219.664 62.585L202.341 54.1441C202.035 53.9949 201.828 53.7096 201.783 53.3721C200.233 41.8344 191.055 18.4185 165.85 12.9047C140.25 7.30474 121.85 4.23807 115.85 3.40474C109.35 2.23807 96.5498 3.20474 97.3498 16.4047C97.4123 17.4368 97.4773 18.4369 97.5442 19.4048C98.3331 30.8161 101.051 34.585 104.551 39.9048C110.156 48.1606 115.944 51.7273 118.551 53.085C123.35 55.585 136.349 61.4048 137.35 48.9048V43.8634" stroke="black" stroke-width="5" stroke-linecap="round"/>
<path d="M165.85 12.9043C158.85 13.4043 135.949 17.0043 124.349 19.4043C112.749 21.8044 115.516 32.071 118.349 36.9043C123.981 44.8819 145.174 43.7573 150.1 40.5577C150.563 40.257 151.211 40.1835 151.65 40.517C164.2 50.0366 167.899 48.9043 184.55 48.9043" stroke="black" stroke-width="5" stroke-linecap="round"/>
<path d="M131.55 65.585L131.349 127.905" stroke="black" stroke-width="5" stroke-linecap="round"/>
<rect x="120.849" y="130.904" width="21" height="11" rx="5.5" stroke="black" stroke-width="5"/>
<path d="M131.349 143.404L131.349 179.404" stroke="black" stroke-width="5" stroke-linecap="round"/>
<path d="M244.678 152.628L187.677 120.628C180.344 107.461 174.978 78.528 208.178 66.1278C238.664 54.7414 267.664 69.085 281.664 77.0852" stroke="black" stroke-width="5" stroke-linecap="round"/>
<path d="M116.849 162.04H129.349C130.454 162.04 131.349 162.935 131.349 164.04V175.04C131.349 176.145 130.454 177.04 129.349 177.04H121.349C120.245 177.04 119.349 176.145 119.349 175.04V173.54C119.349 172.435 120.245 171.54 121.349 171.54H121.599C122.566 171.54 123.349 170.757 123.349 169.79C123.349 168.824 122.566 168.04 121.599 168.04H116.849C115.745 168.04 114.849 167.145 114.849 166.04V164.04C114.849 162.935 115.745 162.04 116.849 162.04Z" fill="black"/>
</svg>
