<svg width="788" height="768" viewBox="0 0 788 768" fill="none" xmlns="http://www.w3.org/2000/svg">
<path d="M1.19176 746.883C-7.06029 739.566 29.605 740.107 47.7016 739.769C50.3075 743.428 52.2257 743.495 56.9309 744.342C59.1024 749.932 9.44381 754.2 1.19176 746.883Z" fill="black"/>
<path d="M283.339 193.769C281.661 199.842 280.41 219.576 287 235.769" stroke="black" stroke-width="5" stroke-linecap="round"/>
<path d="M278 239.738C293.639 234.134 323.42 227.276 323.42 246.662V250.026C323.42 252.297 326.015 253.584 327.81 252.193C352.916 232.741 404 193.769 422 164.269" stroke="black" stroke-width="5" stroke-linecap="round"/>
<path d="M347.306 89.769C362.67 101.865 386.515 127.973 363.338 138.594C361.979 139.216 361.229 140.722 361.617 142.158C366.177 159.044 365.456 193.912 330.081 217.525C329.554 217.876 329.149 218.398 328.957 218.998L322 240.769" stroke="black" stroke-width="5" stroke-linecap="round"/>
<path d="M332.1 178.769C331.554 181.169 332.972 186.129 343 186.769" stroke="black" stroke-width="5" stroke-linecap="round"/>
<path d="M359 115.769C359 121.028 357.41 125.652 355.006 128.883C352.601 132.112 349.557 133.769 346.5 133.769C343.443 133.769 340.399 132.112 337.994 128.883C335.59 125.652 334 121.028 334 115.769C334 110.51 335.59 105.886 337.994 102.655C340.399 99.4264 343.443 97.769 346.5 97.769C349.557 97.769 352.601 99.4264 355.006 102.655C357.41 105.886 359 110.51 359 115.769Z" stroke="black" stroke-width="5" stroke-linecap="round"/>
<path d="M301 131.769L332 120.769" stroke="black" stroke-width="5" stroke-linecap="round"/>
<path d="M325 110.769C325.789 107.436 328.695 99.7686 334 95.769" stroke="black" stroke-width="5" stroke-linecap="round"/>
<path d="M348 118.769C350.209 118.769 352 117.426 352 115.769C352 114.112 350.209 112.769 348 112.769C345.791 112.769 344 114.112 344 115.769C344 117.426 345.791 118.769 348 118.769Z" fill="black"/>
<path d="M334.397 446.769C332.556 427.11 331.082 383.731 339.923 367.476C348.763 351.221 357.257 327.969 363.231 318.563C383.321 306.965 431.2 262.469 462 177.269" stroke="black" stroke-width="5" stroke-linecap="round"/>
<path d="M278 238.769L163 373.769" stroke="black" stroke-width="5" stroke-linecap="round"/>
<path d="M163 374.183C171.526 373.032 193.69 373.59 214.15 385.046C239.726 399.365 266.804 424.549 334 446.769" stroke="black" stroke-width="5" stroke-linecap="round"/>
<path d="M334 446.769L311 462.769" stroke="black" stroke-width="5" stroke-linecap="round"/>
<path d="M163.013 373.769C161.455 378.598 159.909 389.861 173 403.769" stroke="black" stroke-width="5" stroke-linecap="round"/>
<path d="M247 275.769C228.39 291.27 181.201 323.973 141.323 330.775C132.019 334.608 116.001 345.375 126.369 357.776C136.738 370.178 143.65 385.28 145.81 391.279C147.472 396.781 151.608 404.45 161.578 386.849" stroke="black" stroke-width="5" stroke-linecap="round"/>
<path d="M130 362.769C122.274 367.325 104.258 376.03 94.0008 374.41C83.7435 372.791 76.9053 377.11 74.7683 379.472C73.6176 381.328 72.8944 385.14 79.2066 385.546C85.5187 385.951 93.0146 385.714 95.9733 385.546" stroke="black" stroke-width="5" stroke-linecap="round"/>
<path d="M104 378.769C100.54 382.646 88.7749 391.458 69.3974 395.688C65.6077 396.393 60.4996 400.446 67.4202 405.205C73.352 408.906 89.7635 405.522 98.0682 400.446" stroke="black" stroke-width="5" stroke-linecap="round"/>
<path d="M97.9781 399.769C91.6226 402.969 80.1826 411.487 85.2671 419.971C86.8966 421.655 93.7735 421.788 108.245 408.859L119 399.769" stroke="black" stroke-width="5" stroke-linecap="round"/>
<path d="M119.538 399.962L108.557 409.134C105.395 417.458 100.57 437.674 113.548 426.462C123.032 416.779 121.035 408.524 125.029 406.077C129.022 403.631 138.007 394.187 142 389.769" stroke="black" stroke-width="5" stroke-linecap="round"/>
<path d="M120.009 383.769C118.679 387.886 117.615 397.449 124 402.769" stroke="black" stroke-width="5" stroke-linecap="round"/>
<path d="M241 720.769C247.29 719.102 259.97 710.67 260.367 690.269C260.765 669.869 269.141 634.769 273.278 619.769L314 439.769" stroke="black" stroke-width="5" stroke-linecap="round"/>
<path d="M329 149.769C330.105 149.769 331 149.097 331 148.269C331 147.441 330.105 146.769 329 146.769C327.895 146.769 327 147.441 327 148.269C327 149.097 327.895 149.769 329 149.769Z" fill="black"/>
<path d="M335.5 155.769C336.328 155.769 337 155.321 337 154.769C337 154.217 336.328 153.769 335.5 153.769C334.672 153.769 334 154.217 334 154.769C334 155.321 334.672 155.769 335.5 155.769Z" fill="black"/>
<path d="M321 159.769C321.552 159.769 322 158.874 322 157.769C322 156.664 321.552 155.769 321 155.769C320.448 155.769 320 156.664 320 157.769C320 158.874 320.448 159.769 321 159.769Z" fill="black"/>
<path d="M173.245 135.439C197.547 90.2677 233.835 84.5883 248.942 87.3943C280.316 39.3499 323.643 23.5004 350.037 37.8644C371.153 49.3551 353.856 78.3139 342.567 91.3574L331.612 75.5079C324.042 90.1687 302.395 84.7532 291.77 81.4511C300.9 100.603 315.475 150.101 284.798 194.876C254.121 239.652 215.575 240.443 196.152 227.566C178.224 214.854 148.942 180.611 173.245 135.439Z" fill="black"/>
<path d="M161 726.769C164.315 731.958 175.355 741.75 193 739.415" stroke="black" stroke-width="5" stroke-linecap="round"/>
<path d="M188.791 376.769C182.534 394.667 153.219 431.457 127.035 477.695C109.578 506.697 67.9455 571.461 41.0689 598.507C37.4459 603.644 34.0533 615.311 49.4679 620.879C61.3252 625.851 66.661 637.385 68.242 649.715C70.2181 665.128 95.415 676.562 112.213 665.128C125.602 656.012 164.1 590.362 193.185 553.264C200.59 543.819 207.385 536.224 213 531.887" stroke="black" stroke-width="5" stroke-linecap="round"/>
<path d="M193.904 553.769L161 726.769C177.725 722.307 223.667 713.88 252 713.88" stroke="black" stroke-width="5" stroke-linecap="round"/>
<path d="M30.1335 712.471C2.87678 659.636 28.1436 624.476 41.8087 615.769C62.9924 622.432 63.5648 644.643 67 655.193L59.0717 676.903C53.7664 686.241 56.8611 704.506 59.0717 712.471C68.2354 749.374 54.4045 752.921 47.617 743.039L30.1335 712.471Z" fill="black"/>
<path d="M175.46 760.921C166.279 753.65 184.437 750.831 202.863 749.769C209.283 755.509 251.92 757.468 254 758.796C234.385 765.173 183.506 767.292 175.46 760.921Z" fill="black"/>
<path d="M267.681 757.807C198.069 767.351 183.622 739.818 185.099 723.722C197.071 718.723 229.992 716.905 245.511 715.769C241.077 726.222 246.619 724.858 250.499 727.699C255.488 731.107 269.344 735.274 277.103 735.652C312.021 737.357 284.678 755.346 267.681 757.807Z" fill="black"/>
<path d="M431.663 76.2453C434.852 74.412 441.429 73.7453 442.229 85.7453" stroke="black" stroke-width="5" stroke-linecap="round"/>
<path d="M425.229 108.245C425.562 103.579 425.229 92.9453 421.229 87.7453C416.229 81.2453 415.229 68.7453 425.229 69.7453C428.403 70.0628 430.423 72.7001 431.663 76.2453C433.548 81.6343 433.631 89.1209 433.229 93.7453" stroke="black" stroke-width="5" stroke-linecap="round"/>
<path d="M418.943 121.245C418.538 116.745 416.829 106.345 413.229 100.745C408.729 93.7452 408.229 75.7452 417.729 77.7452" stroke="black" stroke-width="5" stroke-linecap="round"/>
<path d="M425.229 155.245C422.729 155.245 417.429 152.845 416.229 143.245C415.029 133.645 410.729 127.579 408.729 125.745C407.562 122.912 406.329 117.045 410.729 116.245C413.32 115.774 416.384 118.285 418.943 121.245L423.229 127.245" stroke="black" stroke-width="5" stroke-linecap="round"/>
<path d="M448.229 110.745C449.396 108.579 450.529 103.045 445.729 98.2453C439.729 92.2453 441.229 86.7453 444.729 85.2453C448.229 83.7453 453.229 84.7453 458.229 99.7453C463.229 112.745 470.629 145.745 462.229 173.745" stroke="black" stroke-width="5" stroke-linecap="round"/>
<path d="M471.07 32.5087L478.916 18.2454" stroke="black" stroke-width="6" stroke-linecap="round"/>
<path d="M403.229 39.2454L417.229 48.2454" stroke="black" stroke-width="6" stroke-linecap="round"/>
<path d="M428.631 3L442.327 34.4909" stroke="black" stroke-width="6" stroke-linecap="round"/>
<path d="M477.11 75.7659C477.11 65.2674 479.552 47.7423 492.251 63.614C500.065 75.0219 502.996 97.7383 497.135 109.245" stroke="black" stroke-width="5" stroke-linecap="round"/>
<path d="M451.224 85.4378C449.596 79.6513 448.782 68.8717 458.55 72.046L469.295 93.8697" stroke="black" stroke-width="5" stroke-linecap="round"/>
<path d="M469.295 93.8697L458.55 72.046C457.736 65.5981 461.969 55.1823 472.226 63.6141L477.11 75.766L481.994 87.9178" stroke="black" stroke-width="5" stroke-linecap="round"/>
<path d="M482.229 124.745C479.562 130.579 476.729 143.845 486.729 150.245" stroke="black" stroke-width="5" stroke-linecap="round"/>
<path d="M494.729 116.245C497.062 109.579 504.129 96.3454 513.729 96.7454C523.329 97.1454 515.729 109.745 513.729 114.245L499.729 141.745C496.729 149.245 492.229 162.745 502.729 178.245C513.229 192.245 549.437 228.245 588.437 234.245" stroke="black" stroke-width="5" stroke-linecap="round"/>
<path d="M581.229 443.245C584.229 453.912 595.229 478.645 615.229 492.245M550.229 425.745L589.729 437.245L550.229 425.745ZM587.729 457.245C592.062 443.078 597.629 407.945 585.229 380.745C569.729 346.745 560.229 303.245 567.729 274.245C573.729 251.045 595.562 247.578 605.729 248.745C621.729 250.581 649.329 269.745 647.729 321.745C645.729 386.745 630.729 442.245 609.229 485.245L587.729 457.245Z" stroke="black" stroke-width="5" stroke-linecap="round"/>
<path d="M571.729 480.745C571.729 455.245 571.562 437.245 568.729 430.245C607.129 444.645 653.729 440.912 672.229 437.245C672.729 438.412 676.829 449.545 689.229 484.745C704.729 528.745 693.729 675.745 689.229 692.245C684.729 708.745 672.729 709.245 655.229 707.245C641.229 705.645 622.729 667.245 615.229 648.245C580.229 582.745 571.729 510.666 571.729 480.745Z" fill="black"/>
<path d="M707.498 347.78C712.458 359.947 723.677 390.88 728.877 417.28C714.543 427.447 674.229 446.745 626.229 440.745L550.229 425.745C547.229 400.579 546.877 336.48 566.877 279.28C566.877 274.114 572.129 259.645 583.729 253.245" stroke="black" stroke-width="5" stroke-linecap="round"/>
<path d="M703.229 391.245C703.015 388.035 708.94 364.678 707.498 347.78C706.694 338.357 705.666 326.601 704.377 312.28C700.777 272.28 686.543 241.614 679.877 231.28C673.21 220.947 657.437 214.745 644.937 219.245" stroke="black" stroke-width="5" stroke-linecap="round"/>
<path d="M693.631 659.2C697.941 565.42 678.826 476.812 668.229 442.245C694.954 438.638 716.006 427.086 723.729 423.245C731.488 452.502 742.843 527.614 747.512 562.014C759.151 599.686 756.672 653.857 753.978 676.233C755.702 689.859 744.639 695.27 738.891 696.272C708.287 706.291 695.966 675.732 693.631 659.2Z" fill="black"/>
<path d="M450.229 83.7454C458.729 97.4121 471.329 130.545 461.729 177.745C462.562 187.912 477.399 221.531 488.729 236.745C506.229 260.245 542.729 286.745 565.229 294.245" stroke="black" stroke-width="5" stroke-linecap="round"/>
<path d="M605.361 226.459C598.746 222.388 548.988 226.312 539.314 163.721C522.751 163.915 513.745 150.348 526.383 144.542C539.854 137.595 538.844 124.841 536.403 117.326C532.522 107.471 532.288 97.1239 533.124 94.9597" stroke="black" stroke-width="5" stroke-linecap="round"/>
<path d="M553.055 141.223C550.689 141.251 548.737 138.396 548.696 134.847C548.654 131.298 550.539 128.398 552.905 128.371C555.271 128.343 557.223 131.198 557.264 134.747C557.306 138.296 555.421 141.196 553.055 141.223Z" fill="black"/>
<path d="M563.153 120.459C560.39 117.506 553.244 113.185 546.769 119.532" stroke="black" stroke-width="5" stroke-linecap="round"/>
<path d="M581.923 177.976C576.845 185.791 571.269 188.01 560.439 182.967" stroke="black" stroke-width="5" stroke-linecap="round"/>
<path d="M623.499 123.199C624.675 125.783 625.661 131.649 620.191 134.441" stroke="black" stroke-width="5" stroke-linecap="round"/>
<path d="M681.793 96.6648C688.236 131.92 668.074 158.459 653.457 178.861C637.846 170.427 612.261 150.371 622.073 148.206C632.388 145.931 643.266 117.798 633.25 109.192C621.498 99.0946 610.905 114.372 608.887 125.956L599.422 109.588C602.098 98.1394 603.148 78.057 585.935 89.3153C568.722 100.573 543.473 97.6244 533 94.7426C512.35 79.962 480.267 45.4855 517.136 25.8246C547.801 9.47217 587.703 30.1461 612.061 48.7227C628.554 44.3688 673.007 48.5955 681.793 96.6648Z" fill="black"/>
<path d="M652.311 176.499C644.856 185.473 641.153 192.925 641.614 208.362" stroke="black" stroke-width="5" stroke-linecap="round"/>
<path d="M698.599 766.988C636.599 769.488 607.099 757.049 607.099 748.488C607.099 744.988 605.099 741.488 619.099 736.488C613.099 744.655 615.299 760.188 672.099 756.988C681.265 757.488 701.899 755.088 711.099 741.488H715.599C760.599 729.988 787.099 739.428 787.099 747.988C787.099 756.549 750.099 764.912 698.599 766.988Z" fill="black"/>
<path d="M710.218 741.269C743.707 744.469 747.931 717.602 745.857 703.769" stroke="black" stroke-width="5" stroke-linecap="round"/>
<path d="M665.857 716.769C665.857 718.936 665.357 723.669 663.357 725.269C660.857 727.269 615.857 722.269 616.857 744.769C616.357 747.936 621.357 752.769 633.357 754.269C650.235 756.379 698.616 762.538 710.218 741.269C710.893 740.031 711.444 738.699 711.857 737.269L716.357 718.269" stroke="black" stroke-width="5" stroke-linecap="round"/>
</svg>
