<svg width="1285" height="1220" viewBox="0 0 1285 1220" fill="none" xmlns="http://www.w3.org/2000/svg">
<path d="M55.5005 560C62.6802 560 68.5005 554.18 68.5005 547C68.5005 539.82 62.6802 534 55.5005 534C48.3208 534 42.5005 539.82 42.5005 547C42.5005 554.18 48.3208 560 55.5005 560Z" stroke="black" stroke-width="5"/>
<path d="M80.9745 548.324C107.196 545.625 148.34 548.817 153.203 569.1C158.066 589.383 139.496 596.801 129.604 597.975C91.9401 603.961 42 601.144 42 569.1" stroke="black" stroke-width="5" stroke-linecap="round"/>
<path d="M71.5005 579C73.1573 579 74.5005 577.657 74.5005 576C74.5005 574.343 73.1573 573 71.5005 573C69.8436 573 68.5005 574.343 68.5005 576C68.5005 577.657 69.8436 579 71.5005 579Z" stroke="black" stroke-width="5"/>
<path d="M100.5 576C100.5 577.457 99.1427 579 97.0005 579C94.8583 579 93.5005 577.457 93.5005 576C93.5005 574.543 94.8583 573 97.0005 573C99.1427 573 100.5 574.543 100.5 576Z" stroke="black" stroke-width="5"/>
<path d="M122.5 579C124.157 579 125.5 577.657 125.5 576C125.5 574.343 124.157 573 122.5 573C120.844 573 119.5 574.343 119.5 576C119.5 577.657 120.844 579 122.5 579Z" stroke="black" stroke-width="5"/>
<path d="M1042 194C1048.63 194 1054 188.627 1054 182C1054 175.373 1048.63 170 1042 170C1035.37 170 1030 175.373 1030 182C1030 188.627 1035.37 194 1042 194Z" stroke="black" stroke-width="5"/>
<path d="M1065.58 171.5C1074.37 171.5 1099.5 171.5 1111.32 171.5C1120.89 171.5 1125.5 173.618 1125.5 188.442C1125.5 202.845 1125.38 221.502 1125.5 229.032C1125.58 234.326 1122.95 240.185 1114.15 241.032C1105.36 241.879 1070.07 241.385 1053.52 241.032C1047.37 241.032 1036.5 237.548 1036.5 223.384V207.501" stroke="black" stroke-width="5" stroke-linecap="round"/>
<path d="M1059.5 196.5L1081.5 211.5" stroke="black" stroke-width="5" stroke-linecap="round"/>
<path d="M1081.5 211.5L1121.5 174.5" stroke="black" stroke-width="5" stroke-linecap="round"/>
<path d="M1091.64 202.5L1102.57 213.5L1113.5 224.5" stroke="black" stroke-width="5" stroke-linecap="round"/>
<path d="M1051.5 224.5L1067.63 202.5" stroke="black" stroke-width="5" stroke-linecap="round"/>
<path d="M1129.94 943.982C1126.62 947.31 1123.75 950.179 1121.78 952.155C1116.63 957.307 1111.23 954.302 1109.17 952.155L1076.35 920.528C1071.5 916.022 1067.4 911.574 1049.09 894.1C1047.21 892.222 1044.24 887.428 1047.36 883.268C1050.47 879.109 1067.98 857.273 1076.35 846.875C1078.88 843.199 1084.4 838.826 1091.43 845.366C1097.49 850.998 1118.26 870.494 1136 885.317" stroke="black" stroke-width="5" stroke-linecap="round"/>
<path d="M1076 848C1077.03 866.97 1083.99 897.507 1120 909" stroke="black" stroke-width="5" stroke-linecap="round"/>
<path d="M1167.31 910.468C1166.92 914.019 1166.67 917.743 1166.73 920.909M1168.36 904.63C1167.99 906.821 1167.61 907.742 1167.31 910.468L1168.36 904.63ZM1183 931.89C1181.6 936.143 1172.47 945.228 1155.62 944.996C1138.76 944.764 1133.6 929.899 1133.06 922.978C1132.57 916.651 1135.02 904.455 1143.99 896.837C1153.02 889.162 1164.5 888.947 1174.68 896.837C1183.12 903.372 1183.11 913.368 1181.61 918.589C1180.71 921.693 1177.33 924.737 1171.07 928.449C1167.95 930.299 1166.85 926.465 1166.73 920.909L1183 931.89ZM1167.31 910.468C1165.66 906.273 1152.99 901.389 1148.2 910.468C1143.26 919.833 1147.04 927.722 1150.25 929.269C1154.35 931.244 1160.37 932.277 1166.73 920.909L1167.31 910.468Z" stroke="black" stroke-width="5" stroke-linecap="round"/>
<path d="M280 785.569C276.405 771.69 264.467 746.094 245.483 754.746C226.498 763.398 237.572 778.899 245.483 785.569C250.806 789.174 262.25 793.031 265.438 779.62C268.626 766.21 255.191 760.694 251.415 766.643C249.424 768.986 247.175 774.862 254.112 779.62" stroke="black" stroke-width="5" stroke-linecap="round"/>
<path d="M363.773 102.756C363.719 102.595 363.738 102.501 363.758 102.442C363.786 102.365 363.847 102.272 363.951 102.196C364.055 102.12 364.161 102.089 364.243 102.086C364.306 102.083 364.401 102.094 364.539 102.193L384.936 116.834C386.871 118.224 389.481 118.209 391.401 116.797L411.629 101.923C411.766 101.823 411.86 101.811 411.923 101.813C412.005 101.815 412.112 101.845 412.217 101.92C412.321 101.995 412.384 102.087 412.412 102.164C412.434 102.223 412.453 102.316 412.401 102.478L404.78 126.401C404.056 128.671 404.877 131.149 406.813 132.538L408.271 130.507L406.813 132.538L427.209 147.18C427.347 147.279 427.388 147.365 427.406 147.425C427.429 147.504 427.433 147.615 427.394 147.738C427.355 147.86 427.287 147.948 427.223 147.999C427.173 148.038 427.091 148.085 426.921 148.086L401.813 148.23C399.431 148.243 397.328 149.79 396.604 152.06L388.983 175.983C388.931 176.145 388.861 176.21 388.81 176.245C388.742 176.292 388.638 176.33 388.509 176.331C388.38 176.332 388.276 176.294 388.208 176.249C388.156 176.214 388.085 176.149 388.032 175.988L380.136 152.154C379.387 149.892 377.267 148.37 374.884 148.384L349.777 148.528C349.607 148.529 349.523 148.482 349.474 148.444C349.408 148.394 349.34 148.307 349.299 148.185C349.259 148.063 349.262 147.952 349.284 147.873C349.302 147.812 349.341 147.725 349.478 147.625L369.705 132.751C371.625 131.339 372.417 128.852 371.668 126.59L363.773 102.756Z" stroke="black" stroke-width="5"/>
<path d="M673.5 559.915V644.915" stroke="black" stroke-width="5" stroke-linecap="round"/>
<path d="M737.5 569.915V650.915" stroke="black" stroke-width="5" stroke-linecap="round"/>
<path d="M587.808 938C566.675 940.631 517.202 950.336 506.365 970.07C503.114 975.992 499.343 990.399 510.266 1000.66C521.191 1010.92 541.153 1008.23 549.768 1005.59L600 985.365" stroke="black" stroke-width="5" stroke-linecap="round"/>
<path d="M875.8 789.076C836.368 790.345 662.206 874.661 580.054 916.661C573.059 962.941 602.58 996.171 618.215 1007C700.102 983.227 868.167 935.046 885.34 932.51C902.513 929.975 919.525 917.718 925.885 911.907C970.406 859.922 937.546 815.756 915.55 800.171C899.892 789.076 886.375 788.735 875.8 789.076Z" fill="black"/>
<path d="M506.432 777.282C534.371 779.146 656.251 826.382 714 851.139L581.93 917.134C522.824 934.467 486.515 928.757 475.426 925.021C411.419 894.184 436.497 818.106 461.928 789.924C478.318 775.974 496.421 776.615 506.432 777.282Z" fill="black"/>
<path d="M817.386 947C834.848 955.391 844.29 966.386 849.077 975.402C859.336 998.881 840.915 1012.99 819.884 1006.36C808.262 1002.69 805.522 1000.23 799.367 995.129C796.243 992.538 781.655 978.983 765 962.973" stroke="black" stroke-width="5" stroke-linecap="round"/>
<path d="M482.073 546.323L495.48 789.964C495.772 795.266 500.155 799.415 505.465 799.415H879.5C885.023 799.415 889.5 794.938 889.5 789.415V540.551C889.5 534.975 884.94 530.477 879.365 530.552L491.923 535.775C486.238 535.851 481.76 540.646 482.073 546.323Z" fill="black"/>
<rect x="493.5" y="802.915" width="396" height="19" rx="9.5" fill="black"/>
<path d="M738.5 424.915C773.333 424.415 850 450.915 880.5 534.415" stroke="black" stroke-width="5" stroke-linecap="round"/>
<path d="M662 424.415C582.5 439.915 544.5 473.915 514.5 539.415" stroke="black" stroke-width="5" stroke-linecap="round"/>
<path d="M928 503.5L947.5 471" stroke="black" stroke-width="5" stroke-linecap="round"/>
<path d="M947.5 512.5L974 490.5" stroke="black" stroke-width="5" stroke-linecap="round"/>
<path d="M951.5 527.5C956.667 529.5 968.4 531.4 974 523" stroke="black" stroke-width="5" stroke-linecap="round"/>
<path d="M440 497.415L410 466.415" stroke="black" stroke-width="5" stroke-linecap="round"/>
<path d="M470.5 492.415L452.5 445.915" stroke="black" stroke-width="5" stroke-linecap="round"/>
<path d="M432.5 514.915L410 506.415" stroke="black" stroke-width="5" stroke-linecap="round"/>
<path d="M900.5 590.5C919 619.5 940 654 900.5 718.915" stroke="black" stroke-width="5" stroke-linecap="round"/>
<path d="M739 427.415C743.5 414.415 739.4 405.667 735.4 404C711.4 426 675 417.833 661.5 404.5C656.7 408.9 659.5 421.915 661.5 425.915C687.5 454.715 724.5 438.581 739 427.415Z" fill="black"/>
<path d="M632.5 507.415L640.53 495.09C648.356 483.077 663.588 478.281 676.885 483.643L696.022 491.359C707.961 496.174 721.641 492.834 730.019 483.06L752 457.415" stroke="black" stroke-width="5" stroke-linecap="round"/>
<path d="M476 608.915C468.5 626.582 459.6 669.415 484 699.415" stroke="black" stroke-width="5" stroke-linecap="round"/>
<path d="M807.943 223.021C796.943 262.521 791.443 266.021 775.443 283.521C775.443 266.226 772.472 237.196 772.472 225.108C720.083 225.108 675.869 203.722 660.311 193.029C660.869 229.292 626.872 253.003 626.872 253.003C626.872 253.003 631.748 267.648 634.535 300.425C636.764 326.646 630.355 321.579 626.872 315.767C616.84 283.409 600.398 292.056 593.431 300.425C507.944 161.521 639.411 134.681 664.49 137.238C683.439 121.059 709.866 108.38 728.443 106.521C795.443 99.8136 825.779 158.973 807.943 223.021Z" fill="black"/>
<path d="M628.043 340.49C637.043 395.436 697.451 434.945 741.043 390.436C784.635 345.926 775.912 264.454 771.254 226.436" stroke="black" stroke-width="5" stroke-linecap="round"/>
<path d="M592.443 297.021C586.943 310.521 592.103 340.435 628.043 340.435" stroke="black" stroke-width="5" stroke-linecap="round"/>
<path d="M608.294 304.436C607.499 307.324 608.135 314.169 617.043 318.436" stroke="black" stroke-width="5" stroke-linecap="round"/>
<path d="M770.043 333.436C781.773 328.545 790.043 310.436 786.861 281.436" stroke="black" stroke-width="5" stroke-linecap="round"/>
<path d="M704.043 366.436C715.543 369.436 714.816 361.18 723.543 353.936" stroke="black" stroke-width="5" stroke-linecap="round"/>
<circle cx="738.373" cy="296.585" r="7.5" fill="black"/>
<circle cx="672.373" cy="297.585" r="7.5" fill="black"/>
<path d="M656.043 280.436C657.621 275.789 664.431 267.192 679.043 269.98" stroke="black" stroke-width="5" stroke-linecap="round"/>
<path d="M726.043 271.436C729.528 268.417 739.007 264.191 749.043 271.436" stroke="black" stroke-width="5" stroke-linecap="round"/>
<path d="M701.85 292.436C700.685 302.31 699.893 322.333 706.043 323.436" stroke="black" stroke-width="5" stroke-linecap="round"/>
<path d="M990 746C1123.5 783 1363.3 825.499 1254.5 699.499C1220.17 665.666 1169.5 626 1088 591" stroke="black" stroke-width="5" stroke-linecap="round"/>
<path d="M1134.5 487.488C1217.5 434.321 1351.2 324.488 1222 310.488C1092.8 296.488 974.833 344.988 932 370.988" stroke="black" stroke-width="5" stroke-linecap="round"/>
<path d="M813 409.793C868 291.293 957 45.6933 873 11.2933C768 -31.7067 632 92.2932 521 388.293" stroke="black" stroke-width="5" stroke-linecap="round"/>
<path d="M398.68 307.713C275.68 240.38 24.5797 136.813 4.1797 261.213C-16.2203 385.613 233.013 489.38 360.18 525.713" stroke="black" stroke-width="5" stroke-linecap="round"/>
<path d="M392.831 591C213.331 682.5 -11.5795 809.045 113.001 875C164 902 294.5 885.5 354.5 861" stroke="black" stroke-width="5" stroke-linecap="round"/>
<ellipse cx="686.5" cy="1190" rx="247.5" ry="30" fill="black"/>
</svg>
