<svg width="414" height="346" viewBox="0 0 414 346" fill="none" xmlns="http://www.w3.org/2000/svg">
<g clip-path="url(#clip0_292_4446)">
<path d="M92.3071 151.551C85.2393 148.557 77.4666 146.9 69.3071 146.9C36.7223 146.9 10.3071 173.316 10.3071 205.9C10.3071 238.485 36.7223 264.9 69.3071 264.9C101.892 264.9 128.307 238.485 128.307 205.9C128.307 191.658 123.261 178.595 114.859 168.4" stroke="black" stroke-width="5" stroke-linecap="round"/>
<path d="M215.807 98.4004C224.307 126.567 259.407 188.5 331.807 210.9" stroke="black" stroke-width="5" stroke-linecap="round"/>
<path d="M331.807 218.4C333.974 248.567 337.007 313.1 331.807 329.9" stroke="black" stroke-width="5" stroke-linecap="round"/>
<path d="M334.807 336.9C347.974 344.734 375.007 349.7 377.807 306.9C380.607 264.1 375.641 210.067 372.807 188.4" stroke="black" stroke-width="5" stroke-linecap="round"/>
<path d="M381.307 199.9C394.807 184.4 434.807 128.9 388.307 47.9004" stroke="black" stroke-width="5" stroke-linecap="round"/>
<path d="M376.807 34.403C353.307 10.4005 340.807 1.31193 324.807 14.4032C318.807 19.3123 317.307 30.4025 326.307 44.4025" stroke="black" stroke-width="5" stroke-linecap="round"/>
<path d="M198.306 41.3991C196.306 28.3991 200.36 7.99158 217.806 3.39986C227.306 0.899468 240.306 12.0251 243.806 18.4004" stroke="black" stroke-width="5" stroke-linecap="round"/>
<path d="M261.307 75.9004C269.126 109.172 297.702 171.869 349.52 156.984C349.707 156.93 349.891 156.858 350.062 156.766C363.479 149.554 376.952 122.059 352.307 83.9004" stroke="black" stroke-width="5" stroke-linecap="round"/>
<path d="M264.307 84.4L324.307 47.9C333.851 40.6601 357.494 28.0272 376.571 34.6343C377.055 34.8021 377.481 35.1054 377.812 35.4967L386.884 46.2172C387.731 47.2184 387.832 48.6561 387.114 49.7541C374.743 68.685 365.767 73.2555 348.807 84.4" stroke="black" stroke-width="5" stroke-linecap="round"/>
<path d="M222.307 116.9L125.307 184.9" stroke="black" stroke-width="5" stroke-linecap="round"/>
<path d="M277.807 117.401C313.307 101.9 311.807 101.9 349.307 84.4014" stroke="black" stroke-width="5" stroke-linecap="round"/>
<path d="M128.807 195.901L234.307 139.901" stroke="black" stroke-width="5" stroke-linecap="round"/>
<path d="M290.11 95.4414L331.61 71.9414" stroke="black" stroke-width="5" stroke-linecap="round"/>
<path d="M214.307 89.4004C210.707 95.4004 204.307 99.4007 199.307 102.901L23.8066 239.401C17.3066 243.401 15.3068 240.4 14.3068 238.4C12.5039 234.795 17.3067 230.938 18.3066 229.901C80.9733 164.901 182.507 60.3004 193.307 47.9004" stroke="black" stroke-width="5" stroke-linecap="round"/>
<path d="M243.807 18.4004C249.483 25.8499 255.952 36.735 261.008 47.1093C261.206 47.5154 261.307 47.9608 261.307 48.4126V76.9004" stroke="black" stroke-width="5" stroke-linecap="round"/>
<path d="M110.11 154.941L192.61 78.4414" stroke="black" stroke-width="5" stroke-linecap="round"/>
<path d="M190.307 151.4L216.807 132.9" stroke="black" stroke-width="5" stroke-linecap="round"/>
<path d="M214.307 89.9C218.141 79.9003 232.607 57.4008 259.807 47.4004" stroke="black" stroke-width="5" stroke-linecap="round"/>
<path d="M193.807 47.4008C205.641 39.7341 233.807 25.9008 251.807 31.9008" stroke="black" stroke-width="5" stroke-linecap="round"/>
<path d="M40.8071 308.9C63.1747 308.9 81.3071 304.423 81.3071 298.9C81.3071 293.378 63.1747 288.9 40.8071 288.9C18.4396 288.9 0.307129 293.378 0.307129 298.9C0.307129 304.423 18.4396 308.9 40.8071 308.9Z" fill="black"/>
<path d="M16.3071 179.902C25.9738 172.735 44.3071 163.4 66.8071 179.902" stroke="black" stroke-width="5" stroke-linecap="round"/>
<path d="M79.3071 196.902C86.6405 205.235 99.1071 229.502 90.3071 259.902" stroke="black" stroke-width="5" stroke-linecap="round"/>
</g>
<defs>
<clipPath id="clip0_292_4446">
<rect width="413" height="345" fill="white" transform="translate(0.158691 0.0400391)"/>
</clipPath>
</defs>
</svg>
