<svg width="464" height="366" viewBox="0 0 464 366" fill="none" xmlns="http://www.w3.org/2000/svg">
<path d="M287.411 152.454C300.909 235.681 259.74 310.421 196.936 320.607C134.132 330.792 71.4525 272.895 57.9546 189.667C44.4567 106.44 85.625 31.7002 148.429 21.5145C211.233 11.3289 273.913 69.2266 287.411 152.454Z" stroke="black" stroke-width="5"/>
<path d="M261.295 155.16C266.456 186.983 261.543 217.248 249.548 240.437C237.553 263.627 218.578 279.595 195.586 283.324C172.595 287.053 149.545 277.901 130.836 259.69C112.127 241.48 97.9007 214.319 92.7397 182.497C87.5787 150.674 92.4915 120.409 104.486 97.2194C116.481 74.0293 135.457 58.0616 158.448 54.3329C181.44 50.6041 204.489 59.7561 223.199 77.9665C241.908 96.1766 256.134 123.338 261.295 155.16Z" stroke="black" stroke-width="5"/>
<ellipse cx="185.127" cy="170.1" rx="44.301" ry="59.7332" transform="rotate(-9.21208 185.127 170.1)" fill="black"/>
<path d="M83.3336 305.041C163.333 382.041 252.333 337.041 271.334 288.541C262.872 336.919 205.545 364.366 157.833 365.54C105.333 365.54 39.8331 322.04 21.8329 282.54C-44.4064 137.183 56.5002 34.874 106.834 20.541C12.3333 65.041 -2.64687 222.284 83.3336 305.041Z" fill="black"/>
<path d="M184.333 157.04L326.833 65.9312L355.333 48.04" stroke="black" stroke-width="5" stroke-linecap="round"/>
<path d="M323.333 58.54L326.601 36.131C326.746 35.1372 327.379 34.2819 328.286 33.8523L383.421 7.75815C386.1 6.49017 388.799 9.46191 387.28 12.0072L376.266 30.4631C375.137 32.3558 376.365 34.7796 378.56 34.9872L402.421 37.2443C405.233 37.5103 406.153 41.1604 403.803 42.7271L356.535 74.2389C355.775 74.7452 354.827 74.8782 353.957 74.6004L326.833 65.9312" stroke="black" stroke-width="5" stroke-linecap="round"/>
<path d="M189.833 167.54L368.215 103.652L399.868 92.2309" stroke="black" stroke-width="5" stroke-linecap="round"/>
<path d="M366.367 95.6851L374.326 74.4837C374.679 73.5435 375.479 72.8423 376.457 72.6156L435.88 58.844C438.768 58.1748 440.773 61.6526 438.748 63.8166L424.06 79.508C422.554 81.1171 423.239 83.7468 425.339 84.4163L448.175 91.6964C450.866 92.5543 450.988 96.3166 448.359 97.3476L395.471 118.086C394.621 118.419 393.666 118.347 392.875 117.891L368.215 103.652" stroke="black" stroke-width="5" stroke-linecap="round"/>
<path d="M329.049 147.002L339.643 129.346C340.157 128.489 341.064 127.945 342.062 127.894L395.81 125.133C398.769 124.981 400.134 128.753 397.763 130.53L383.089 141.523C381.336 142.837 381.536 145.525 383.463 146.565L401.38 156.228C403.851 157.561 403.301 161.255 400.548 161.81L351.096 171.77C350.186 171.953 349.242 171.705 348.54 171.097L329.319 154.455" stroke="black" stroke-width="5" stroke-linecap="round"/>
<path d="M192.833 178.04L329.319 154.455L359.24 149.284" stroke="black" stroke-width="5" stroke-linecap="round"/>
</svg>
