<svg width="713" height="522" viewBox="0 0 713 522" fill="none" xmlns="http://www.w3.org/2000/svg">
<path d="M545.276 486.454C523.676 468.854 552.942 466.787 570.276 467.954V479.454L611.776 489.954C598.609 496.121 566.876 504.054 545.276 486.454Z" fill="black"/>
<path d="M658.776 475.954C644.776 477.554 640.61 471.287 640.276 467.954H670.276C672.276 469.954 672.776 474.354 658.776 475.954Z" fill="black"/>
<path d="M627.276 427.454C611.776 427.454 603.276 426.454 590.776 425.454" stroke="black" stroke-width="5" stroke-linecap="round"/>
<path d="M639.276 433.454V481.454" stroke="black" stroke-width="5" stroke-linecap="round"/>
<path d="M603.276 435.954L570.276 433.454" stroke="black" stroke-width="5" stroke-linecap="round"/>
<path d="M618.776 440.954V489.454" stroke="black" stroke-width="5" stroke-linecap="round"/>
<path d="M618.276 490.454L639.276 481.954" stroke="black" stroke-width="5" stroke-linecap="round"/>
<path d="M590.276 425.454L570.276 433.454" stroke="black" stroke-width="5" stroke-linecap="round"/>
<path d="M569.776 433.954V479.954" stroke="black" stroke-width="5" stroke-linecap="round"/>
<path d="M569.276 479.454L618.276 490.454" stroke="black" stroke-width="5" stroke-linecap="round"/>
<path d="M627.276 428.454V414.454" stroke="black" stroke-width="5" stroke-linecap="round"/>
<path d="M670.776 467.454V418.954" stroke="black" stroke-width="5" stroke-linecap="round"/>
<path d="M694.276 402.954V456.954" stroke="black" stroke-width="5" stroke-linecap="round"/>
<path d="M670.776 468.454L694.276 456.954" stroke="black" stroke-width="5" stroke-linecap="round"/>
<path d="M694.276 402.454L641.276 400.454" stroke="black" stroke-width="5" stroke-linecap="round"/>
<path d="M627.276 414.454L641.276 400.454" stroke="black" stroke-width="5" stroke-linecap="round"/>
<path d="M670.776 418.454L693.776 403.454" stroke="black" stroke-width="5" stroke-linecap="round"/>
<path d="M670.776 467.454H641.276" stroke="black" stroke-width="5" stroke-linecap="round"/>
<path d="M627.776 414.454L656.276 415.454" stroke="black" stroke-width="5" stroke-linecap="round"/>
<path d="M228.243 507.5C228.743 493.5 284.743 498 288.243 498.5V507.5L305.243 519.5C279.409 520.167 227.843 518.7 228.243 507.5Z" fill="black"/>
<path d="M367.242 506V455" stroke="black" stroke-width="5" stroke-linecap="round"/>
<path d="M323.742 519V463" stroke="black" stroke-width="5" stroke-linecap="round"/>
<path d="M287.742 506V450" stroke="black" stroke-width="5" stroke-linecap="round"/>
<path d="M287.742 450L327.242 440" stroke="black" stroke-width="5" stroke-linecap="round"/>
<path d="M367.242 454.5L323.742 462.5" stroke="black" stroke-width="5" stroke-linecap="round"/>
<path d="M323.742 519.5L367.242 506.5" stroke="black" stroke-width="5" stroke-linecap="round"/>
<path d="M367.242 454.5L327.242 440" stroke="black" stroke-width="5" stroke-linecap="round"/>
<path d="M287.742 450.5L324.242 462.5" stroke="black" stroke-width="5" stroke-linecap="round"/>
<path d="M415.987 505C406.787 489 436.154 486.666 451.987 487.5V499L503.487 505C478.154 511.666 425.187 521 415.987 505Z" fill="black"/>
<path d="M528.986 483.5L509.486 503.5" stroke="black" stroke-width="5" stroke-linecap="round"/>
<path d="M504.986 442.5L454.486 439" stroke="black" stroke-width="5" stroke-linecap="round"/>
<path d="M474.986 426L528.986 428.5" stroke="black" stroke-width="5" stroke-linecap="round"/>
<path d="M453.486 439L450.986 497" stroke="black" stroke-width="5" stroke-linecap="round"/>
<path d="M528.986 429.5V482.5" stroke="black" stroke-width="5" stroke-linecap="round"/>
<path d="M509.486 461V503.5" stroke="black" stroke-width="5" stroke-linecap="round"/>
<path d="M453.486 439L474.986 426" stroke="black" stroke-width="5" stroke-linecap="round"/>
<path d="M509.486 503.5L450.486 497.5" stroke="black" stroke-width="5" stroke-linecap="round"/>
<path d="M405.561 130.264C407.728 129.597 413.461 128.964 419.061 131.764" stroke="black" stroke-width="5" stroke-linecap="round"/>
<path d="M385.561 156.264C389.427 156.264 392.561 152.906 392.561 148.764C392.561 144.622 389.427 141.264 385.561 141.264C381.695 141.264 378.561 144.622 378.561 148.764C378.561 152.906 381.695 156.264 385.561 156.264Z" fill="black"/>
<path d="M442.561 166.264C446.427 166.264 449.561 162.906 449.561 158.764C449.561 154.622 446.427 151.264 442.561 151.264C438.695 151.264 435.561 154.622 435.561 158.764C435.561 162.906 438.695 166.264 442.561 166.264Z" fill="black"/>
<path d="M368.561 136.764C369.061 133.597 372.161 127.564 380.561 128.764" stroke="black" stroke-width="5" stroke-linecap="round"/>
<path d="M432.561 135.764C436.561 132.264 446.561 127.364 454.561 135.764" stroke="black" stroke-width="5" stroke-linecap="round"/>
<path d="M411.061 144.264C415.728 151.931 422.261 168.364 411.061 172.764L405.561 174.764" stroke="black" stroke-width="5" stroke-linecap="round"/>
<path d="M392.061 190.264C393.228 193.431 397.661 198.664 406.061 194.264" stroke="black" stroke-width="5" stroke-linecap="round"/>
<path d="M231.06 116.764C214.66 170.764 260.226 209.931 285.06 222.764C307.46 209.164 339.393 202.264 353.06 200.264C336.06 186.264 330.893 160.597 329.56 148.764C320.56 151.764 296.56 140.264 307.56 116.764C316.36 97.964 325.893 107.597 329.56 114.764L354.06 125.764C354.06 102.964 369.726 95.264 377.56 94.264C382.36 91.064 387.56 80.597 389.56 75.764C391.96 94.564 416.56 108.264 428.56 112.764C444.16 100.364 456.726 107.597 461.06 112.764L472.06 111.264C493.56 103.931 532.16 78.864 514.56 37.264C496.96 -4.33602 460.56 3.26398 444.56 12.264C389.76 -24.136 334.726 29.097 314.06 60.264C293.226 56.597 247.46 62.764 231.06 116.764Z" fill="black"/>
<path d="M353.561 126.264L329.561 113.764" stroke="black" stroke-width="5" stroke-linecap="round"/>
<path d="M405.061 125.264C405.061 142.509 393.275 155.764 379.561 155.764C365.847 155.764 354.061 142.509 354.061 125.264C354.061 108.018 365.847 94.764 379.561 94.764C393.275 94.764 405.061 108.018 405.061 125.264Z" stroke="black" stroke-width="5"/>
<path d="M471.061 136.264C471.061 153.509 459.275 166.764 445.561 166.764C431.847 166.764 420.061 153.509 420.061 136.264C420.061 119.018 431.847 105.764 445.561 105.764C459.275 105.764 471.061 119.018 471.061 136.264Z" stroke="black" stroke-width="5"/>
<path d="M472.061 232.649C510.461 201.849 488.561 160.316 472.561 143.149C463.761 184.749 443.395 202.649 434.561 206.649L448.561 214.149L472.061 232.649Z" fill="black"/>
<path d="M332.561 125.264C331.728 116.097 321.061 94.264 309.561 114.764C304.561 124.097 300.961 144.064 326.561 149.264" stroke="black" stroke-width="5" stroke-linecap="round"/>
<path d="M324.06 121.764C321.727 123.764 318.26 128.964 323.06 133.764" stroke="black" stroke-width="5" stroke-linecap="round"/>
<path d="M469.062 147.764C466.262 163.764 460.061 178.257 453.561 187.264C449.497 192.896 442.912 200.005 434.516 206.202" stroke="black" stroke-width="5" stroke-linecap="round"/>
<path d="M329.061 149.264C328.728 169.597 336.662 199.764 373.062 215.764C378.661 218.225 384.166 219.637 389.516 220.206" stroke="black" stroke-width="5" stroke-linecap="round"/>
<path d="M431.061 240.264C423.061 238.264 415.395 244.764 412.561 248.264C411.061 251.431 410.361 257.664 419.561 257.264C431.061 256.764 434.561 240.264 448.061 266.764C458.861 287.964 459.561 329.597 458.561 347.764" stroke="black" stroke-width="5" stroke-linecap="round" stroke-linejoin="round"/>
<path d="M404.887 234.764C402.278 240.431 400.16 251.064 412.56 248.264" stroke="black" stroke-width="5" stroke-linecap="round" stroke-linejoin="round"/>
<path d="M409.713 215.264C402.713 218.264 392.561 229.064 396.561 236.264C397.061 237.097 398.561 238.664 400.561 238.264C401.437 238.089 402.865 236.564 404.888 234.764C408.64 231.425 414.44 227.14 422.561 228.764" stroke="black" stroke-width="5" stroke-linecap="round" stroke-linejoin="round"/>
<path d="M549.632 386.954C554.632 362.454 549.761 304.964 488.561 249.764L448.061 214.264L422.561 200.764L417.562 199.764L398.562 204.264L396.561 206.264L390.061 218.264C389.061 220.764 393.362 223.664 400.562 221.264" stroke="black" stroke-width="5" stroke-linecap="round" stroke-linejoin="round"/>
<path d="M351.561 202.264C319.061 206.597 234.691 225.227 183.561 300.764C135.373 371.954 189.873 401.954 230.373 403.454" stroke="black" stroke-width="5" stroke-linecap="round" stroke-linejoin="round"/>
<path d="M2.63184 413.454L228.132 402.454" stroke="black" stroke-width="5" stroke-linecap="round" stroke-linejoin="round"/>
<path d="M289.632 399.954L709.782 381.649" stroke="black" stroke-width="5" stroke-linecap="round"/>
<path d="M252.177 404.222C252.795 406.139 252.34 407.517 249.932 407.724C242.805 408.335 234.341 397.287 231.001 391.687" stroke="black" stroke-width="5" stroke-linecap="round"/>
<path d="M252.159 382.523C255.716 388.206 261.919 396.963 267.357 401.931C266.861 405.749 263.13 411.553 252.177 404.222C250.509 399.048 241.023 389.953 241.023 389.396" stroke="black" stroke-width="5" stroke-linecap="round"/>
<path d="M261.81 377.178C268.615 384.687 280.964 400.775 275.916 405.051C275.021 405.809 273.88 405.882 272.575 405.438C271.021 404.909 269.235 403.646 267.357 401.931C261.919 396.963 255.716 388.206 252.159 382.523" stroke="black" stroke-width="5" stroke-linecap="round"/>
<path d="M205.873 396.748C217.256 382.493 253.644 351.595 274.431 370.305C282.721 378.578 293.053 393.531 287.114 399.64C284.144 401.931 277.716 398.876 273.57 392.767" stroke="black" stroke-width="5" stroke-linecap="round"/>
<path d="M246.425 315.454C239.258 321.121 228.025 335.854 240.425 349.454" stroke="black" stroke-width="5" stroke-linecap="round"/>
</svg>
