<svg width="1552" height="1053" viewBox="0 0 1552 1053" fill="none" xmlns="http://www.w3.org/2000/svg">
<g clip-path="url(#clip0_292_90)">
<path d="M626.994 935.663C655.961 846.705 703.574 695.927 717.127 632.399C717.184 632.134 717.343 631.918 717.574 631.775C776.63 595.042 840.51 575.059 861.996 571.071C862.258 571.023 862.512 571.089 862.731 571.241C917.452 609.496 951.306 632.877 972.233 652.782C1025.45 703.403 1035.58 800.469 1034.65 863.649C1034.65 864.008 1034.45 864.327 1034.14 864.5L1012.2 876.621C1011.66 876.918 1010.99 876.663 1010.77 876.089C992.862 827.954 959.464 789.965 937.61 720.929C937.627 721.488 937.148 721.98 936.556 721.965C877.178 720.448 874.795 717.028 821.212 700.655C789.238 802.642 697.927 903.28 652.632 946.566C652.346 946.838 651.941 946.903 651.576 946.753L627.57 936.881C627.086 936.682 626.832 936.16 626.994 935.663Z" fill="black"/>
<path d="M788.441 346.408C793.441 338.908 847.808 318.916 827.655 248.231C845.212 240.404 848.128 221.732 831.988 221.739C814.415 220.948 809.296 207.01 808.226 197.903C807.537 185.63 802.767 174.607 800.836 172.731" stroke="black" stroke-width="5" stroke-linecap="round"/>
<path d="M802.025 230.656C804.342 229.623 804.964 225.968 803.415 222.493C801.865 219.017 798.731 217.037 796.414 218.07C794.097 219.103 793.475 222.758 795.024 226.233C796.574 229.709 799.708 231.689 802.025 230.656Z" fill="black"/>
<path d="M781.541 214.179C783.022 209.724 788.461 201.703 798.365 205.255" stroke="black" stroke-width="5" stroke-linecap="round"/>
<path d="M789.642 283.924C798.786 289.701 805.741 289.337 814.715 278.768" stroke="black" stroke-width="5" stroke-linecap="round"/>
<path d="M719.243 246.331C719.255 249.626 721.061 256.289 728.181 256.58" stroke="black" stroke-width="5" stroke-linecap="round"/>
<path d="M644.913 246.623C655.216 286.92 689.344 305.124 714.648 319.547C727.018 303.084 744.269 269.53 732.873 272.007C720.895 274.609 695.782 250.222 702.169 236.291C709.663 219.946 728.24 230.917 735.986 242.152L738.028 220.304C729.655 209.531 718.809 188.866 742.418 192.389C766.026 195.912 791.217 180.558 800.862 172.441C815.467 146.843 832.575 94.9344 784.167 92.0838C743.906 89.7128 711.859 130.861 695.186 162.259C675.686 165.667 630.865 191.68 644.913 246.623Z" fill="black"/>
<path d="M714.712 316.5C726.923 322.347 734.441 328.408 741.441 344.908" stroke="black" stroke-width="5" stroke-linecap="round"/>
<path d="M726.712 463.5C730.496 490.155 732.851 561.059 712.512 633.682C712.255 634.6 713.295 635.357 714.076 634.81C735.84 619.567 792.7 587.622 865.859 568.72C866.344 568.594 866.669 568.15 866.611 567.651C861.854 527.407 859.291 442.808 882.521 420.68C882.648 420.559 882.794 420.481 882.965 420.442C930.868 409.384 1032.51 374.155 1062.15 319.123C1062.19 319.041 1062.22 318.957 1062.24 318.866C1064.37 308.917 1065.83 288.6 1055.04 285.102C1054.83 285.033 1054.6 285.045 1054.39 285.129C983.642 313.738 904.789 337.435 803.441 355.408" stroke="black" stroke-width="5" stroke-linecap="round"/>
<path d="M726.712 497.5C678.312 550.3 633.274 570.408 598.941 585.408C574.955 597.636 522.941 606.408 546.212 568.5C646.212 443.7 668.212 422 691.712 400.5C705.209 388.152 711.212 380.5 745.212 371.5" stroke="black" stroke-width="5" stroke-linecap="round"/>
<path d="M586.712 973.5C584.712 960.5 623.546 941.5 630.213 938L650.713 946C649.113 956 644.046 961.833 641.713 963.5L586.712 973.5Z" stroke="black" stroke-width="5"/>
<path d="M1021.71 893.5C1013.71 891.9 1013.38 880.5 1014.21 875L1032.21 866C1037.71 867.5 1052.41 871.4 1067.21 875C1082.01 878.6 1080.04 883.5 1077.21 885.5L1021.71 893.5Z" stroke="black" stroke-width="5"/>
<path d="M917.838 990.5C917.838 1025.02 889.856 1053 855.338 1053C820.82 1053 792.838 1025.02 792.838 990.5C792.838 955.982 820.82 928 855.338 928C889.856 928 917.838 955.982 917.838 990.5Z" fill="black"/>
<path d="M489.712 998L1219.71 864" stroke="black" stroke-width="10" stroke-linecap="round"/>
<path d="M1130.71 157.5H1088.71C1084.57 157.5 1081.21 160.858 1081.21 165V196C1081.21 200.142 1084.57 203.5 1088.71 203.5H1130.71C1134.85 203.5 1138.21 200.142 1138.21 196V165C1138.21 160.858 1134.85 157.5 1130.71 157.5Z" stroke="black" stroke-width="5"/>
<path d="M1201.71 145.5H1173.71C1169.57 145.5 1166.21 148.858 1166.21 153V193C1166.21 197.142 1169.57 200.5 1173.71 200.5H1201.71C1205.85 200.5 1209.21 197.142 1209.21 193V153C1209.21 148.858 1205.85 145.5 1201.71 145.5Z" stroke="black" stroke-width="5"/>
<path d="M1272.71 120.5H1245.71C1241.57 120.5 1238.21 123.858 1238.21 128V193C1238.21 197.142 1241.57 200.5 1245.71 200.5H1272.71C1276.85 200.5 1280.21 197.142 1280.21 193V128C1280.21 123.858 1276.85 120.5 1272.71 120.5Z" stroke="black" stroke-width="5"/>
<path d="M1345.71 95H1317.71C1312.19 95 1307.71 99.4772 1307.71 105V193C1307.71 198.523 1312.19 203 1317.71 203H1345.71C1351.23 203 1355.71 198.523 1355.71 193V105C1355.71 99.4772 1351.23 95 1345.71 95Z" fill="black"/>
<path d="M1419.71 141.5H1392.71C1388.57 141.5 1385.21 144.858 1385.21 149V193C1385.21 197.142 1388.57 200.5 1392.71 200.5H1419.71C1423.85 200.5 1427.21 197.142 1427.21 193V149C1427.21 144.858 1423.85 141.5 1419.71 141.5Z" stroke="black" stroke-width="5"/>
<path d="M1494.71 166.5H1466.71C1462.57 166.5 1459.21 169.858 1459.21 174V193C1459.21 197.142 1462.57 200.5 1466.71 200.5H1494.71C1498.85 200.5 1502.21 197.142 1502.21 193V174C1502.21 169.858 1498.85 166.5 1494.71 166.5Z" stroke="black" stroke-width="5"/>
<path d="M1380.71 0H1283.71C1278.19 0 1273.71 4.47715 1273.71 10V64C1273.71 69.5229 1278.19 74 1283.71 74H1380.71C1386.23 74 1390.71 69.5229 1390.71 64V10C1390.71 4.47715 1386.23 0 1380.71 0Z" fill="black"/>
<path d="M1332.22 81.2561C1331.42 82.1763 1330 82.1763 1329.2 81.2561L1320.58 71.3099C1319.46 70.0147 1320.38 68 1322.09 68H1339.33C1341.04 68 1341.96 70.0147 1340.84 71.3099L1332.22 81.2561Z" fill="black"/>
<path d="M1373.71 34H1309.71C1307.5 34 1305.71 35.7909 1305.71 38C1305.71 40.2091 1307.5 42 1309.71 42H1373.71C1375.92 42 1377.71 40.2091 1377.71 38C1377.71 35.7909 1375.92 34 1373.71 34Z" fill="white"/>
<path d="M1293.71 38C1293.71 36.3431 1292.37 35 1290.71 35C1289.05 35 1287.71 36.3431 1287.71 38C1287.71 39.6569 1289.05 41 1290.71 41C1292.37 41 1293.71 39.6569 1293.71 38Z" stroke="white" stroke-width="2"/>
<path d="M1335.71 53H1309.71C1307.5 53 1305.71 54.7909 1305.71 57C1305.71 59.2091 1307.5 61 1309.71 61H1335.71C1337.92 61 1339.71 59.2091 1339.71 57C1339.71 54.7909 1337.92 53 1335.71 53Z" fill="white"/>
<path d="M1316.71 14H1290.71C1288.5 14 1286.71 15.7909 1286.71 18C1286.71 20.2091 1288.5 22 1290.71 22H1316.71C1318.92 22 1320.71 20.2091 1320.71 18C1320.71 15.7909 1318.92 14 1316.71 14Z" fill="white"/>
<path d="M1294.71 57C1294.71 54.7909 1292.92 53 1290.71 53C1288.5 53 1286.71 54.7909 1286.71 57C1286.71 59.2091 1288.5 61 1290.71 61C1292.92 61 1294.71 59.2091 1294.71 57Z" fill="white"/>
<path d="M199.672 774.965C215.388 766.884 233.315 764.164 250.721 767.221C268.126 770.277 284.054 778.941 296.077 791.893C308.1 804.845 315.557 821.373 317.312 838.957C319.066 856.542 315.022 874.217 305.796 889.289C296.57 904.361 282.668 916.003 266.209 922.438C249.751 928.874 231.64 929.75 214.637 924.934C197.634 920.118 182.673 909.873 172.034 895.763C161.396 881.652 155.664 864.449 155.712 846.778L236.712 847L199.672 774.965Z" stroke="black" stroke-width="10"/>
<path d="M140.712 838C140.712 823.372 144.773 809.032 152.443 796.576C160.113 784.121 171.091 774.039 184.153 767.455L219.712 838H140.712Z" fill="black"/>
<path d="M1145.53 284.103C1146.67 286.758 1147.09 292.625 1140.54 296.183C1140.06 296.447 1139.53 296.698 1138.97 296.934C1130.78 300.355 1128.74 294.73 1128.74 291.49V288.189" stroke="black" stroke-width="5" stroke-linecap="round"/>
<path d="M1144.47 275.938C1146.67 277.265 1149.68 280.634 1145.53 284.103C1145.22 284.362 1144.87 284.621 1144.47 284.881C1139.68 288.036 1132.87 288.45 1128.74 288.189C1127.98 288.141 1127.32 288.071 1126.77 287.991C1124.54 287.368 1120.95 284.948 1124.41 280.253" stroke="black" stroke-width="5" stroke-linecap="round"/>
<path d="M1142.9 266.218C1145.13 266.736 1148.96 268.784 1146.44 272.828C1143.92 276.871 1131.23 279.437 1125.2 280.215C1124.94 280.241 1124.68 280.254 1124.41 280.253C1122.03 280.244 1119.69 279.09 1119.69 275.938C1119.69 271.485 1125.46 269.976 1126.77 269.717" stroke="black" stroke-width="5" stroke-linecap="round"/>
<path d="M1129.71 253C1131.94 253.907 1133.3 257.198 1127.95 259.997C1122.6 262.796 1123.89 266.607 1125.2 268.162C1127.3 269.976 1134.09 271.35 1144.47 262.33C1154.86 253.31 1138.57 247.685 1128.74 246" stroke="black" stroke-width="5" stroke-linecap="round"/>
<path d="M1106.71 262.33C1111.17 258.831 1119.85 253.932 1118.91 262.33C1117.96 270.728 1111.96 274.383 1109.07 275.161" stroke="black" stroke-width="5" stroke-linecap="round"/>
<path d="M1106.71 296C1109.32 293.755 1113.77 286.411 1110.63 275" stroke="black" stroke-width="5" stroke-linecap="round"/>
<path d="M1108.62 259.602L1103.71 233" stroke="black" stroke-width="5" stroke-linecap="round"/>
<path d="M1126.21 228.5L1129.56 255.693" stroke="black" stroke-width="5" stroke-linecap="round"/>
<path d="M1133.91 297.904C1133.91 305.33 1137.47 315.101 1129.56 317.446C1119.91 320.309 1118.89 311.583 1116.92 302.594L1111.78 275.626" stroke="black" stroke-width="5" stroke-linecap="round"/>
<path d="M1105.71 249.5C1100.21 250.5 1087.31 256.1 1079.71 270.5C1072.11 284.9 1064.88 289.5 1062.21 290" stroke="black" stroke-width="5" stroke-linecap="round"/>
<path d="M1063.71 315C1077.71 316.5 1106.61 315.9 1116.21 305.5" stroke="black" stroke-width="5" stroke-linecap="round"/>
<path d="M1106.21 232.5C1132.72 232.5 1154.21 211.01 1154.21 184.5C1154.21 157.99 1132.72 136.5 1106.21 136.5C1079.7 136.5 1058.21 157.99 1058.21 184.5C1058.21 211.01 1079.7 232.5 1106.21 232.5Z" stroke="black" stroke-width="5"/>
<path d="M1548.65 277.548C1529.47 281.483 1538.46 307.893 1524.41 314.92C1507.63 323.309 1501.85 276.079 1504.03 256.032C1504.66 247.242 1514.89 243.333 1516.27 256.032C1517.74 269.522 1501 321.831 1481.82 301.646L1469.02 286.827C1465.46 282.442 1458.45 276.349 1452.52 286.827C1446.59 297.304 1437.14 293.842 1433.16 290.801L1420.65 281.698" stroke="black" stroke-width="5" stroke-linecap="round"/>
<path d="M1429.62 241.351L1330.04 224.483C1329.06 224.316 1328.46 225.542 1329.21 226.212L1375.33 267.751C1375.41 267.817 1375.48 267.872 1375.58 267.908C1379.66 269.513 1395.32 263.343 1403.66 259.611C1404.22 259.359 1404.87 259.667 1405.04 260.259C1406.96 266.985 1409.28 273.203 1410.47 276.167C1410.65 276.603 1411.13 276.844 1411.45 276.497C1413.68 274.037 1413.99 261.515 1413.83 254.328C1413.82 253.815 1414.19 253.38 1414.7 253.281C1420.83 252.084 1429.12 246.699 1432.65 244.035" stroke="black" stroke-width="5" stroke-linecap="round"/>
<path d="M1404.65 258.908C1394.03 254.019 1367.16 241.775 1344.65 231.908" stroke="black" stroke-width="5" stroke-linecap="round"/>
<path d="M1410.65 276.908L1390.65 264.908" stroke="black" stroke-width="5" stroke-linecap="round"/>
<path d="M1406.65 248.908L1379.65 240.908" stroke="black" stroke-width="5" stroke-linecap="round"/>
<path d="M731.441 375.908C724.275 367.575 714.241 350.008 731.441 346.408C752.941 341.908 801.441 342.908 803.441 354.908" stroke="black" stroke-width="5" stroke-linecap="round"/>
<path d="M501.131 638.959C505.02 641.061 516.745 641.862 532.533 628.245C548.321 614.628 551.774 602.489 551.527 598.121" stroke="black" stroke-width="5" stroke-linecap="round"/>
<path d="M481.594 638.628C481.152 642.386 483.648 648.148 497.165 641.133L501.13 638.959L508.026 635.178" stroke="black" stroke-width="5" stroke-linecap="round"/>
<path d="M478.075 626.986C474.899 628.851 469.782 633.667 474.724 638.016C476.215 639.328 478.68 639.364 481.594 638.628C488.337 636.923 497.483 631.079 502.513 627.326" stroke="black" stroke-width="5" stroke-linecap="round"/>
<path d="M537.002 579.689C529.549 576.951 514.151 571.61 503.918 575.165C501.35 576.129 495.529 577.457 492.79 575.057C489.367 572.058 482.878 579.752 491.701 584.9C500.525 590.048 506.273 584.59 505.104 592.762C504.169 599.301 486.063 609.911 477.127 614.398C473.917 615.852 468.614 620.067 473.084 625.3C474.191 626.596 475.95 627.073 478.075 626.986C484.535 626.72 494.385 621.244 499.645 617.696" stroke="black" stroke-width="5" stroke-linecap="round"/>
<path d="M275.056 219.848C301.411 246.823 350.375 258.71 376.184 261.955C378.008 262.185 378.65 264.557 377.17 265.649L309.264 315.736C309.043 315.899 308.788 316.016 308.52 316.076C258.242 327.297 211.367 277.246 192.767 248.812C192.058 247.729 192.586 246.291 193.814 245.879L272.962 219.336C273.7 219.088 274.511 219.291 275.056 219.848Z" stroke="black" stroke-width="5" stroke-linecap="round"/>
<path d="M236.173 260.93C244.173 259.268 261.573 254.094 267.173 246.688" stroke="black" stroke-width="5" stroke-linecap="round"/>
<path d="M258.673 278.93C263.673 279.096 275.173 276.63 281.173 265.43" stroke="black" stroke-width="5" stroke-linecap="round"/>
<path d="M283.173 290.93C290.673 289.93 306.773 284.23 311.173 269.43" stroke="black" stroke-width="5" stroke-linecap="round"/>
<path d="M106.382 428.848C80.0268 455.823 31.0628 467.71 5.25375 470.955C3.42975 471.185 2.78779 473.557 4.26779 474.649L72.1738 524.736C72.3948 524.899 72.6498 525.016 72.9178 525.076C123.196 536.297 170.071 486.246 188.671 457.812C189.38 456.729 188.852 455.291 187.624 454.879L108.476 428.336C107.738 428.088 106.927 428.291 106.382 428.848Z" stroke="black" stroke-width="5" stroke-linecap="round"/>
<path d="M145.265 469.93C137.265 468.268 119.865 463.094 114.265 455.688" stroke="black" stroke-width="5" stroke-linecap="round"/>
<path d="M122.765 487.93C117.765 488.096 106.265 485.63 100.265 474.43" stroke="black" stroke-width="5" stroke-linecap="round"/>
<path d="M98.2646 499.93C90.7646 498.93 74.6646 493.23 70.2646 478.43" stroke="black" stroke-width="5" stroke-linecap="round"/>
</g>
<defs>
<clipPath id="clip0_292_90">
<rect width="1552" height="1053" fill="white" transform="translate(0.000976562)"/>
</clipPath>
</defs>
</svg>
